<?xml version="1.0" encoding="utf-8" standalone="no"?>
<!DOCTYPE svg PUBLIC "-//W3C//DTD SVG 1.1//EN"
  "http://www.w3.org/Graphics/SVG/1.1/DTD/svg11.dtd">
<svg height="432pt" version="1.1" viewBox="0 0 720 432" width="720pt" xmlns="http://www.w3.org/2000/svg" xmlns:xlink="http://www.w3.org/1999/xlink">
 <metadata>
  <rdf:RDF xmlns:cc="http://creativecommons.org/ns#" xmlns:dc="http://purl.org/dc/elements/1.1/" xmlns:rdf="http://www.w3.org/1999/02/22-rdf-syntax-ns#">
   <cc:Work>
    <dc:type rdf:resource="http://purl.org/dc/dcmitype/StillImage"/>
    <dc:date>2021-10-04T14:18:36.814314</dc:date>
    <dc:format>image/svg+xml</dc:format>
    <dc:creator>
     <cc:Agent>
      <dc:title>Matplotlib v3.4.3, https://matplotlib.org/</dc:title>
     </cc:Agent>
    </dc:creator>
   </cc:Work>
  </rdf:RDF>
 </metadata>
 <defs>
  <style type="text/css">*{stroke-linecap:butt;stroke-linejoin:round;}</style>
 </defs>
 <g id="figure_1">
  <g id="patch_1">
   <path d="M 0 432 
L 720 432 
L 720 0 
L 0 0 
z
" style="fill:none;"/>
  </g>
  <g id="axes_1">
   <g id="patch_2">
    <path d="M 90 378 
L 648 378 
L 648 51.84 
L 90 51.84 
z
" style="fill:#ffffff;"/>
   </g>
   <g id="patch_3">
    <path clip-path="url(#p2af8457272)" d="M 243.850444 378 
L 243.850444 51.84 
L 407.325876 51.84 
L 407.325876 378 
z
" style="fill:#008000;opacity:0.1;stroke:#008000;stroke-linejoin:miter;"/>
   </g>
   <g id="matplotlib.axis_1">
    <g id="xtick_1">
     <g id="line2d_1">
      <defs>
       <path d="M 0 0 
L 0 3.5 
" id="mb2821110cb" style="stroke:#000000;stroke-width:0.8;"/>
      </defs>
      <g>
       <use style="stroke:#000000;stroke-width:0.8;" x="199.891846" xlink:href="#mb2821110cb" y="378"/>
      </g>
     </g>
     <g id="text_1">
      <!-- 0.2 -->
      <g transform="translate(191.940283 392.598437)scale(0.1 -0.1)">
       <defs>
        <path d="M 2034 4250 
Q 1547 4250 1301 3770 
Q 1056 3291 1056 2328 
Q 1056 1369 1301 889 
Q 1547 409 2034 409 
Q 2525 409 2770 889 
Q 3016 1369 3016 2328 
Q 3016 3291 2770 3770 
Q 2525 4250 2034 4250 
z
M 2034 4750 
Q 2819 4750 3233 4129 
Q 3647 3509 3647 2328 
Q 3647 1150 3233 529 
Q 2819 -91 2034 -91 
Q 1250 -91 836 529 
Q 422 1150 422 2328 
Q 422 3509 836 4129 
Q 1250 4750 2034 4750 
z
" id="DejaVuSans-30" transform="scale(0.015625)"/>
        <path d="M 684 794 
L 1344 794 
L 1344 0 
L 684 0 
L 684 794 
z
" id="DejaVuSans-2e" transform="scale(0.015625)"/>
        <path d="M 1228 531 
L 3431 531 
L 3431 0 
L 469 0 
L 469 531 
Q 828 903 1448 1529 
Q 2069 2156 2228 2338 
Q 2531 2678 2651 2914 
Q 2772 3150 2772 3378 
Q 2772 3750 2511 3984 
Q 2250 4219 1831 4219 
Q 1534 4219 1204 4116 
Q 875 4013 500 3803 
L 500 4441 
Q 881 4594 1212 4672 
Q 1544 4750 1819 4750 
Q 2544 4750 2975 4387 
Q 3406 4025 3406 3419 
Q 3406 3131 3298 2873 
Q 3191 2616 2906 2266 
Q 2828 2175 2409 1742 
Q 1991 1309 1228 531 
z
" id="DejaVuSans-32" transform="scale(0.015625)"/>
       </defs>
       <use xlink:href="#DejaVuSans-30"/>
       <use x="63.623047" xlink:href="#DejaVuSans-2e"/>
       <use x="95.410156" xlink:href="#DejaVuSans-32"/>
      </g>
     </g>
    </g>
    <g id="xtick_2">
     <g id="line2d_2">
      <g>
       <use style="stroke:#000000;stroke-width:0.8;" x="312.629166" xlink:href="#mb2821110cb" y="378"/>
      </g>
     </g>
     <g id="text_2">
      <!-- 0.4 -->
      <g transform="translate(304.677604 392.598437)scale(0.1 -0.1)">
       <defs>
        <path d="M 2419 4116 
L 825 1625 
L 2419 1625 
L 2419 4116 
z
M 2253 4666 
L 3047 4666 
L 3047 1625 
L 3713 1625 
L 3713 1100 
L 3047 1100 
L 3047 0 
L 2419 0 
L 2419 1100 
L 313 1100 
L 313 1709 
L 2253 4666 
z
" id="DejaVuSans-34" transform="scale(0.015625)"/>
       </defs>
       <use xlink:href="#DejaVuSans-30"/>
       <use x="63.623047" xlink:href="#DejaVuSans-2e"/>
       <use x="95.410156" xlink:href="#DejaVuSans-34"/>
      </g>
     </g>
    </g>
    <g id="xtick_3">
     <g id="line2d_3">
      <g>
       <use style="stroke:#000000;stroke-width:0.8;" x="425.366487" xlink:href="#mb2821110cb" y="378"/>
      </g>
     </g>
     <g id="text_3">
      <!-- 0.6 -->
      <g transform="translate(417.414924 392.598437)scale(0.1 -0.1)">
       <defs>
        <path d="M 2113 2584 
Q 1688 2584 1439 2293 
Q 1191 2003 1191 1497 
Q 1191 994 1439 701 
Q 1688 409 2113 409 
Q 2538 409 2786 701 
Q 3034 994 3034 1497 
Q 3034 2003 2786 2293 
Q 2538 2584 2113 2584 
z
M 3366 4563 
L 3366 3988 
Q 3128 4100 2886 4159 
Q 2644 4219 2406 4219 
Q 1781 4219 1451 3797 
Q 1122 3375 1075 2522 
Q 1259 2794 1537 2939 
Q 1816 3084 2150 3084 
Q 2853 3084 3261 2657 
Q 3669 2231 3669 1497 
Q 3669 778 3244 343 
Q 2819 -91 2113 -91 
Q 1303 -91 875 529 
Q 447 1150 447 2328 
Q 447 3434 972 4092 
Q 1497 4750 2381 4750 
Q 2619 4750 2861 4703 
Q 3103 4656 3366 4563 
z
" id="DejaVuSans-36" transform="scale(0.015625)"/>
       </defs>
       <use xlink:href="#DejaVuSans-30"/>
       <use x="63.623047" xlink:href="#DejaVuSans-2e"/>
       <use x="95.410156" xlink:href="#DejaVuSans-36"/>
      </g>
     </g>
    </g>
    <g id="xtick_4">
     <g id="line2d_4">
      <g>
       <use style="stroke:#000000;stroke-width:0.8;" x="538.103808" xlink:href="#mb2821110cb" y="378"/>
      </g>
     </g>
     <g id="text_4">
      <!-- 0.8 -->
      <g transform="translate(530.152245 392.598437)scale(0.1 -0.1)">
       <defs>
        <path d="M 2034 2216 
Q 1584 2216 1326 1975 
Q 1069 1734 1069 1313 
Q 1069 891 1326 650 
Q 1584 409 2034 409 
Q 2484 409 2743 651 
Q 3003 894 3003 1313 
Q 3003 1734 2745 1975 
Q 2488 2216 2034 2216 
z
M 1403 2484 
Q 997 2584 770 2862 
Q 544 3141 544 3541 
Q 544 4100 942 4425 
Q 1341 4750 2034 4750 
Q 2731 4750 3128 4425 
Q 3525 4100 3525 3541 
Q 3525 3141 3298 2862 
Q 3072 2584 2669 2484 
Q 3125 2378 3379 2068 
Q 3634 1759 3634 1313 
Q 3634 634 3220 271 
Q 2806 -91 2034 -91 
Q 1263 -91 848 271 
Q 434 634 434 1313 
Q 434 1759 690 2068 
Q 947 2378 1403 2484 
z
M 1172 3481 
Q 1172 3119 1398 2916 
Q 1625 2713 2034 2713 
Q 2441 2713 2670 2916 
Q 2900 3119 2900 3481 
Q 2900 3844 2670 4047 
Q 2441 4250 2034 4250 
Q 1625 4250 1398 4047 
Q 1172 3844 1172 3481 
z
" id="DejaVuSans-38" transform="scale(0.015625)"/>
       </defs>
       <use xlink:href="#DejaVuSans-30"/>
       <use x="63.623047" xlink:href="#DejaVuSans-2e"/>
       <use x="95.410156" xlink:href="#DejaVuSans-38"/>
      </g>
     </g>
    </g>
   </g>
   <g id="matplotlib.axis_2">
    <g id="ytick_1">
     <g id="line2d_5">
      <defs>
       <path d="M 0 0 
L -3.5 0 
" id="m7326a667d4" style="stroke:#000000;stroke-width:0.8;"/>
      </defs>
      <g>
       <use style="stroke:#000000;stroke-width:0.8;" x="90" xlink:href="#m7326a667d4" y="363.358899"/>
      </g>
     </g>
     <g id="text_5">
      <!-- 0 -->
      <g transform="translate(76.6375 367.158117)scale(0.1 -0.1)">
       <use xlink:href="#DejaVuSans-30"/>
      </g>
     </g>
    </g>
    <g id="ytick_2">
     <g id="line2d_6">
      <g>
       <use style="stroke:#000000;stroke-width:0.8;" x="90" xlink:href="#m7326a667d4" y="296.221961"/>
      </g>
     </g>
     <g id="text_6">
      <!-- 1 -->
      <g transform="translate(76.6375 300.02118)scale(0.1 -0.1)">
       <defs>
        <path d="M 794 531 
L 1825 531 
L 1825 4091 
L 703 3866 
L 703 4441 
L 1819 4666 
L 2450 4666 
L 2450 531 
L 3481 531 
L 3481 0 
L 794 0 
L 794 531 
z
" id="DejaVuSans-31" transform="scale(0.015625)"/>
       </defs>
       <use xlink:href="#DejaVuSans-31"/>
      </g>
     </g>
    </g>
    <g id="ytick_3">
     <g id="line2d_7">
      <g>
       <use style="stroke:#000000;stroke-width:0.8;" x="90" xlink:href="#m7326a667d4" y="229.085023"/>
      </g>
     </g>
     <g id="text_7">
      <!-- 2 -->
      <g transform="translate(76.6375 232.884242)scale(0.1 -0.1)">
       <use xlink:href="#DejaVuSans-32"/>
      </g>
     </g>
    </g>
    <g id="ytick_4">
     <g id="line2d_8">
      <g>
       <use style="stroke:#000000;stroke-width:0.8;" x="90" xlink:href="#m7326a667d4" y="161.948086"/>
      </g>
     </g>
     <g id="text_8">
      <!-- 3 -->
      <g transform="translate(76.6375 165.747305)scale(0.1 -0.1)">
       <defs>
        <path d="M 2597 2516 
Q 3050 2419 3304 2112 
Q 3559 1806 3559 1356 
Q 3559 666 3084 287 
Q 2609 -91 1734 -91 
Q 1441 -91 1130 -33 
Q 819 25 488 141 
L 488 750 
Q 750 597 1062 519 
Q 1375 441 1716 441 
Q 2309 441 2620 675 
Q 2931 909 2931 1356 
Q 2931 1769 2642 2001 
Q 2353 2234 1838 2234 
L 1294 2234 
L 1294 2753 
L 1863 2753 
Q 2328 2753 2575 2939 
Q 2822 3125 2822 3475 
Q 2822 3834 2567 4026 
Q 2313 4219 1838 4219 
Q 1578 4219 1281 4162 
Q 984 4106 628 3988 
L 628 4550 
Q 988 4650 1302 4700 
Q 1616 4750 1894 4750 
Q 2613 4750 3031 4423 
Q 3450 4097 3450 3541 
Q 3450 3153 3228 2886 
Q 3006 2619 2597 2516 
z
" id="DejaVuSans-33" transform="scale(0.015625)"/>
       </defs>
       <use xlink:href="#DejaVuSans-33"/>
      </g>
     </g>
    </g>
    <g id="ytick_5">
     <g id="line2d_9">
      <g>
       <use style="stroke:#000000;stroke-width:0.8;" x="90" xlink:href="#m7326a667d4" y="94.811148"/>
      </g>
     </g>
     <g id="text_9">
      <!-- 4 -->
      <g transform="translate(76.6375 98.610367)scale(0.1 -0.1)">
       <use xlink:href="#DejaVuSans-34"/>
      </g>
     </g>
    </g>
   </g>
   <g id="line2d_10">
    <path clip-path="url(#p2af8457272)" d="M 256.260506 378 
L 256.260506 51.84 
" style="fill:none;stroke:#ff0000;stroke-linecap:square;stroke-width:1.5;"/>
   </g>
   <g id="line2d_11">
    <path clip-path="url(#p2af8457272)" d="M 311.167766 378 
L 311.167766 51.84 
" style="fill:none;stroke:#008000;stroke-dasharray:5.55,2.4;stroke-dashoffset:0;stroke-width:1.5;"/>
   </g>
   <g id="line2d_12">
    <path clip-path="url(#p2af8457272)" d="M 115.363636 363.174545 
L 145.952947 362.782531 
L 151.051165 362.545717 
L 156.149383 362.121725 
L 161.247602 361.41254 
L 163.796711 360.916424 
L 166.34582 360.307108 
L 168.894929 359.57133 
L 171.444038 358.697518 
L 173.993148 357.676702 
L 176.542257 356.503439 
L 179.091366 355.176637 
L 181.640475 353.70018 
L 186.738693 350.340031 
L 191.836912 346.552794 
L 199.484239 340.449396 
L 207.131567 334.164042 
L 212.229785 329.711928 
L 214.778894 327.265261 
L 217.328004 324.56653 
L 219.877113 321.516061 
L 222.426222 318.000522 
L 224.975331 313.896974 
L 227.52444 309.078166 
L 230.07355 303.418989 
L 232.622659 296.803939 
L 235.171768 289.135336 
L 237.720877 280.341948 
L 240.269986 270.387483 
L 242.819095 259.278334 
L 245.368205 247.069784 
L 247.917314 233.869886 
L 253.015532 205.192884 
L 260.66286 160.249076 
L 263.211969 145.936646 
L 265.761078 132.452115 
L 268.310187 120.049092 
L 270.859296 108.92987 
L 273.408406 99.233332 
L 275.957515 91.027806 
L 278.506624 84.309596 
L 281.055733 79.007346 
L 283.604842 74.991729 
L 286.153952 72.08942 
L 288.703061 70.099891 
L 291.25217 68.813343 
L 293.801279 68.02806 
L 296.350388 67.565683 
L 301.448607 67.081174 
L 309.095934 66.665455 
L 311.645043 66.710562 
L 314.194153 66.99472 
L 316.743262 67.640795 
L 319.292371 68.781683 
L 321.84148 70.55134 
L 324.390589 73.076616 
L 326.939698 76.470128 
L 329.488808 80.824247 
L 332.037917 86.206207 
L 334.587026 92.654312 
L 337.136135 100.175231 
L 339.685244 108.742432 
L 342.234354 118.295834 
L 344.783463 128.742794 
L 347.332572 139.960534 
L 352.43079 164.091484 
L 362.627227 214.041076 
L 365.176336 225.816102 
L 367.725445 236.995589 
L 370.274555 247.468073 
L 372.823664 257.153426 
L 375.372773 266.003886 
L 377.921882 274.003089 
L 380.470991 281.163274 
L 383.020101 287.52098 
L 385.56921 293.131678 
L 388.118319 298.063829 
L 390.667428 302.39289 
L 393.216537 306.19577 
L 395.765646 309.546146 
L 398.314756 312.510961 
L 400.863865 315.148287 
L 403.412974 317.506571 
L 405.962083 319.625172 
L 408.511192 321.535917 
L 411.060302 323.265343 
L 413.609411 324.837201 
L 418.707629 327.603025 
L 423.805847 330.042815 
L 431.453175 333.625293 
L 436.551393 336.290346 
L 441.649612 339.315987 
L 446.74783 342.653732 
L 454.395158 347.798149 
L 459.493376 350.914376 
L 462.042485 352.283119 
L 464.591594 353.49698 
L 467.140704 354.54484 
L 469.689813 355.424292 
L 472.238922 356.141117 
L 474.788031 356.70814 
L 479.886249 357.469378 
L 484.984468 357.88516 
L 495.180905 358.334812 
L 520.671996 359.375199 
L 546.163088 359.843169 
L 566.555962 360.863592 
L 571.65418 360.840893 
L 576.752398 360.631649 
L 584.399726 360.059302 
L 594.596163 359.300727 
L 599.694381 359.153468 
L 604.792599 359.245246 
L 609.890818 359.575179 
L 617.538145 360.396179 
L 622.636364 361.036842 
L 622.636364 361.036842 
" style="fill:none;stroke:#008000;stroke-dasharray:9.6,2.4,1.5,2.4;stroke-dashoffset:0;stroke-width:1.5;"/>
   </g>
   <g id="line2d_13">
    <path clip-path="url(#p2af8457272)" d="M 115.363636 327.296887 
L 123.010964 317.589034 
L 128.109182 311.581112 
L 130.658291 308.806717 
L 133.207401 306.213404 
L 135.75651 303.814841 
L 138.305619 301.618874 
L 140.854728 299.627922 
L 143.403837 297.839592 
L 145.952947 296.247457 
L 148.502056 294.841908 
L 151.051165 293.611027 
L 153.600274 292.541407 
L 156.149383 291.618893 
L 158.698492 290.829188 
L 163.796711 289.593083 
L 168.894929 288.731013 
L 173.993148 288.15712 
L 179.091366 287.803203 
L 186.738693 287.57716 
L 194.386021 287.626257 
L 202.033349 287.903497 
L 209.680676 288.389654 
L 219.877113 289.298486 
L 237.720877 291.007561 
L 245.368205 291.507537 
L 253.015532 291.747151 
L 260.66286 291.673527 
L 265.761078 291.437133 
L 273.408406 290.815686 
L 281.055733 289.949689 
L 298.899497 287.81648 
L 306.546825 287.149146 
L 316.743262 286.497712 
L 344.783463 285.029827 
L 354.979899 284.735881 
L 365.176336 284.69661 
L 375.372773 284.90386 
L 383.020101 285.235582 
L 390.667428 285.745785 
L 398.314756 286.440984 
L 408.511192 287.590562 
L 426.354957 289.643854 
L 434.002284 290.2689 
L 441.649612 290.607024 
L 449.296939 290.621604 
L 456.944267 290.355971 
L 479.886249 289.278837 
L 487.533577 289.24815 
L 497.730014 289.479096 
L 515.573778 289.970444 
L 525.770215 290.033307 
L 538.515761 289.883562 
L 561.457743 289.500825 
L 566.555962 289.603932 
L 571.65418 289.90966 
L 576.752398 290.519461 
L 579.301508 290.975905 
L 581.850617 291.555537 
L 584.399726 292.275793 
L 586.948835 293.154225 
L 589.497944 294.207909 
L 592.047053 295.452743 
L 594.596163 296.902651 
L 597.145272 298.568724 
L 599.694381 300.458339 
L 602.24349 302.574321 
L 604.792599 304.914204 
L 607.341709 307.469658 
L 609.890818 310.226147 
L 614.989036 316.253064 
L 620.087254 322.76056 
L 622.636364 326.101266 
L 622.636364 326.101266 
" style="fill:none;stroke:#0000ff;stroke-dasharray:1.5,2.475;stroke-dashoffset:0;stroke-width:1.5;"/>
   </g>
   <g id="patch_4">
    <path d="M 90 378 
L 90 51.84 
" style="fill:none;stroke:#000000;stroke-linecap:square;stroke-linejoin:miter;stroke-width:0.8;"/>
   </g>
   <g id="patch_5">
    <path d="M 648 378 
L 648 51.84 
" style="fill:none;stroke:#000000;stroke-linecap:square;stroke-linejoin:miter;stroke-width:0.8;"/>
   </g>
   <g id="patch_6">
    <path d="M 90 378 
L 648 378 
" style="fill:none;stroke:#000000;stroke-linecap:square;stroke-linejoin:miter;stroke-width:0.8;"/>
   </g>
   <g id="patch_7">
    <path d="M 90 51.84 
L 648 51.84 
" style="fill:none;stroke:#000000;stroke-linecap:square;stroke-linejoin:miter;stroke-width:0.8;"/>
   </g>
   <g id="text_10">
    <!-- ra -->
    <g transform="translate(362.856562 45.84)scale(0.12 -0.12)">
     <defs>
      <path d="M 2631 2963 
Q 2534 3019 2420 3045 
Q 2306 3072 2169 3072 
Q 1681 3072 1420 2755 
Q 1159 2438 1159 1844 
L 1159 0 
L 581 0 
L 581 3500 
L 1159 3500 
L 1159 2956 
Q 1341 3275 1631 3429 
Q 1922 3584 2338 3584 
Q 2397 3584 2469 3576 
Q 2541 3569 2628 3553 
L 2631 2963 
z
" id="DejaVuSans-72" transform="scale(0.015625)"/>
      <path d="M 2194 1759 
Q 1497 1759 1228 1600 
Q 959 1441 959 1056 
Q 959 750 1161 570 
Q 1363 391 1709 391 
Q 2188 391 2477 730 
Q 2766 1069 2766 1631 
L 2766 1759 
L 2194 1759 
z
M 3341 1997 
L 3341 0 
L 2766 0 
L 2766 531 
Q 2569 213 2275 61 
Q 1981 -91 1556 -91 
Q 1019 -91 701 211 
Q 384 513 384 1019 
Q 384 1609 779 1909 
Q 1175 2209 1959 2209 
L 2766 2209 
L 2766 2266 
Q 2766 2663 2505 2880 
Q 2244 3097 1772 3097 
Q 1472 3097 1187 3025 
Q 903 2953 641 2809 
L 641 3341 
Q 956 3463 1253 3523 
Q 1550 3584 1831 3584 
Q 2591 3584 2966 3190 
Q 3341 2797 3341 1997 
z
" id="DejaVuSans-61" transform="scale(0.015625)"/>
     </defs>
     <use xlink:href="#DejaVuSans-72"/>
     <use x="41.113281" xlink:href="#DejaVuSans-61"/>
    </g>
   </g>
  </g>
  <g id="legend_1">
   <g id="patch_8">
    <path d="M 450.50625 146.190625 
L 626.6 146.190625 
Q 628.6 146.190625 628.6 144.190625 
L 628.6 71.8 
Q 628.6 69.8 626.6 69.8 
L 450.50625 69.8 
Q 448.50625 69.8 448.50625 71.8 
L 448.50625 144.190625 
Q 448.50625 146.190625 450.50625 146.190625 
z
" style="fill:#ffffff;opacity:0.8;stroke:#cccccc;stroke-linejoin:miter;"/>
   </g>
   <g id="line2d_14">
    <path d="M 452.50625 77.898437 
L 472.50625 77.898437 
" style="fill:none;stroke:#ff0000;stroke-linecap:square;stroke-width:1.5;"/>
   </g>
   <g id="line2d_15"/>
   <g id="text_11">
    <!-- true value -->
    <g transform="translate(480.50625 81.398437)scale(0.1 -0.1)">
     <defs>
      <path d="M 1172 4494 
L 1172 3500 
L 2356 3500 
L 2356 3053 
L 1172 3053 
L 1172 1153 
Q 1172 725 1289 603 
Q 1406 481 1766 481 
L 2356 481 
L 2356 0 
L 1766 0 
Q 1100 0 847 248 
Q 594 497 594 1153 
L 594 3053 
L 172 3053 
L 172 3500 
L 594 3500 
L 594 4494 
L 1172 4494 
z
" id="DejaVuSans-74" transform="scale(0.015625)"/>
      <path d="M 544 1381 
L 544 3500 
L 1119 3500 
L 1119 1403 
Q 1119 906 1312 657 
Q 1506 409 1894 409 
Q 2359 409 2629 706 
Q 2900 1003 2900 1516 
L 2900 3500 
L 3475 3500 
L 3475 0 
L 2900 0 
L 2900 538 
Q 2691 219 2414 64 
Q 2138 -91 1772 -91 
Q 1169 -91 856 284 
Q 544 659 544 1381 
z
M 1991 3584 
L 1991 3584 
z
" id="DejaVuSans-75" transform="scale(0.015625)"/>
      <path d="M 3597 1894 
L 3597 1613 
L 953 1613 
Q 991 1019 1311 708 
Q 1631 397 2203 397 
Q 2534 397 2845 478 
Q 3156 559 3463 722 
L 3463 178 
Q 3153 47 2828 -22 
Q 2503 -91 2169 -91 
Q 1331 -91 842 396 
Q 353 884 353 1716 
Q 353 2575 817 3079 
Q 1281 3584 2069 3584 
Q 2775 3584 3186 3129 
Q 3597 2675 3597 1894 
z
M 3022 2063 
Q 3016 2534 2758 2815 
Q 2500 3097 2075 3097 
Q 1594 3097 1305 2825 
Q 1016 2553 972 2059 
L 3022 2063 
z
" id="DejaVuSans-65" transform="scale(0.015625)"/>
      <path id="DejaVuSans-20" transform="scale(0.015625)"/>
      <path d="M 191 3500 
L 800 3500 
L 1894 563 
L 2988 3500 
L 3597 3500 
L 2284 0 
L 1503 0 
L 191 3500 
z
" id="DejaVuSans-76" transform="scale(0.015625)"/>
      <path d="M 603 4863 
L 1178 4863 
L 1178 0 
L 603 0 
L 603 4863 
z
" id="DejaVuSans-6c" transform="scale(0.015625)"/>
     </defs>
     <use xlink:href="#DejaVuSans-74"/>
     <use x="39.208984" xlink:href="#DejaVuSans-72"/>
     <use x="80.322266" xlink:href="#DejaVuSans-75"/>
     <use x="143.701172" xlink:href="#DejaVuSans-65"/>
     <use x="205.224609" xlink:href="#DejaVuSans-20"/>
     <use x="237.011719" xlink:href="#DejaVuSans-76"/>
     <use x="296.191406" xlink:href="#DejaVuSans-61"/>
     <use x="357.470703" xlink:href="#DejaVuSans-6c"/>
     <use x="385.253906" xlink:href="#DejaVuSans-75"/>
     <use x="448.632812" xlink:href="#DejaVuSans-65"/>
    </g>
   </g>
   <g id="line2d_16">
    <path d="M 452.50625 92.576562 
L 472.50625 92.576562 
" style="fill:none;stroke:#008000;stroke-dasharray:5.55,2.4;stroke-dashoffset:0;stroke-width:1.5;"/>
   </g>
   <g id="line2d_17"/>
   <g id="text_12">
    <!-- posterior expectation -->
    <g transform="translate(480.50625 96.076562)scale(0.1 -0.1)">
     <defs>
      <path d="M 1159 525 
L 1159 -1331 
L 581 -1331 
L 581 3500 
L 1159 3500 
L 1159 2969 
Q 1341 3281 1617 3432 
Q 1894 3584 2278 3584 
Q 2916 3584 3314 3078 
Q 3713 2572 3713 1747 
Q 3713 922 3314 415 
Q 2916 -91 2278 -91 
Q 1894 -91 1617 61 
Q 1341 213 1159 525 
z
M 3116 1747 
Q 3116 2381 2855 2742 
Q 2594 3103 2138 3103 
Q 1681 3103 1420 2742 
Q 1159 2381 1159 1747 
Q 1159 1113 1420 752 
Q 1681 391 2138 391 
Q 2594 391 2855 752 
Q 3116 1113 3116 1747 
z
" id="DejaVuSans-70" transform="scale(0.015625)"/>
      <path d="M 1959 3097 
Q 1497 3097 1228 2736 
Q 959 2375 959 1747 
Q 959 1119 1226 758 
Q 1494 397 1959 397 
Q 2419 397 2687 759 
Q 2956 1122 2956 1747 
Q 2956 2369 2687 2733 
Q 2419 3097 1959 3097 
z
M 1959 3584 
Q 2709 3584 3137 3096 
Q 3566 2609 3566 1747 
Q 3566 888 3137 398 
Q 2709 -91 1959 -91 
Q 1206 -91 779 398 
Q 353 888 353 1747 
Q 353 2609 779 3096 
Q 1206 3584 1959 3584 
z
" id="DejaVuSans-6f" transform="scale(0.015625)"/>
      <path d="M 2834 3397 
L 2834 2853 
Q 2591 2978 2328 3040 
Q 2066 3103 1784 3103 
Q 1356 3103 1142 2972 
Q 928 2841 928 2578 
Q 928 2378 1081 2264 
Q 1234 2150 1697 2047 
L 1894 2003 
Q 2506 1872 2764 1633 
Q 3022 1394 3022 966 
Q 3022 478 2636 193 
Q 2250 -91 1575 -91 
Q 1294 -91 989 -36 
Q 684 19 347 128 
L 347 722 
Q 666 556 975 473 
Q 1284 391 1588 391 
Q 1994 391 2212 530 
Q 2431 669 2431 922 
Q 2431 1156 2273 1281 
Q 2116 1406 1581 1522 
L 1381 1569 
Q 847 1681 609 1914 
Q 372 2147 372 2553 
Q 372 3047 722 3315 
Q 1072 3584 1716 3584 
Q 2034 3584 2315 3537 
Q 2597 3491 2834 3397 
z
" id="DejaVuSans-73" transform="scale(0.015625)"/>
      <path d="M 603 3500 
L 1178 3500 
L 1178 0 
L 603 0 
L 603 3500 
z
M 603 4863 
L 1178 4863 
L 1178 4134 
L 603 4134 
L 603 4863 
z
" id="DejaVuSans-69" transform="scale(0.015625)"/>
      <path d="M 3513 3500 
L 2247 1797 
L 3578 0 
L 2900 0 
L 1881 1375 
L 863 0 
L 184 0 
L 1544 1831 
L 300 3500 
L 978 3500 
L 1906 2253 
L 2834 3500 
L 3513 3500 
z
" id="DejaVuSans-78" transform="scale(0.015625)"/>
      <path d="M 3122 3366 
L 3122 2828 
Q 2878 2963 2633 3030 
Q 2388 3097 2138 3097 
Q 1578 3097 1268 2742 
Q 959 2388 959 1747 
Q 959 1106 1268 751 
Q 1578 397 2138 397 
Q 2388 397 2633 464 
Q 2878 531 3122 666 
L 3122 134 
Q 2881 22 2623 -34 
Q 2366 -91 2075 -91 
Q 1284 -91 818 406 
Q 353 903 353 1747 
Q 353 2603 823 3093 
Q 1294 3584 2113 3584 
Q 2378 3584 2631 3529 
Q 2884 3475 3122 3366 
z
" id="DejaVuSans-63" transform="scale(0.015625)"/>
      <path d="M 3513 2113 
L 3513 0 
L 2938 0 
L 2938 2094 
Q 2938 2591 2744 2837 
Q 2550 3084 2163 3084 
Q 1697 3084 1428 2787 
Q 1159 2491 1159 1978 
L 1159 0 
L 581 0 
L 581 3500 
L 1159 3500 
L 1159 2956 
Q 1366 3272 1645 3428 
Q 1925 3584 2291 3584 
Q 2894 3584 3203 3211 
Q 3513 2838 3513 2113 
z
" id="DejaVuSans-6e" transform="scale(0.015625)"/>
     </defs>
     <use xlink:href="#DejaVuSans-70"/>
     <use x="63.476562" xlink:href="#DejaVuSans-6f"/>
     <use x="124.658203" xlink:href="#DejaVuSans-73"/>
     <use x="176.757812" xlink:href="#DejaVuSans-74"/>
     <use x="215.966797" xlink:href="#DejaVuSans-65"/>
     <use x="277.490234" xlink:href="#DejaVuSans-72"/>
     <use x="318.603516" xlink:href="#DejaVuSans-69"/>
     <use x="346.386719" xlink:href="#DejaVuSans-6f"/>
     <use x="407.568359" xlink:href="#DejaVuSans-72"/>
     <use x="448.681641" xlink:href="#DejaVuSans-20"/>
     <use x="480.46875" xlink:href="#DejaVuSans-65"/>
     <use x="540.242188" xlink:href="#DejaVuSans-78"/>
     <use x="599.421875" xlink:href="#DejaVuSans-70"/>
     <use x="662.898438" xlink:href="#DejaVuSans-65"/>
     <use x="724.421875" xlink:href="#DejaVuSans-63"/>
     <use x="779.402344" xlink:href="#DejaVuSans-74"/>
     <use x="818.611328" xlink:href="#DejaVuSans-61"/>
     <use x="879.890625" xlink:href="#DejaVuSans-74"/>
     <use x="919.099609" xlink:href="#DejaVuSans-69"/>
     <use x="946.882812" xlink:href="#DejaVuSans-6f"/>
     <use x="1008.064453" xlink:href="#DejaVuSans-6e"/>
    </g>
   </g>
   <g id="line2d_18">
    <path d="M 452.50625 107.254687 
L 472.50625 107.254687 
" style="fill:none;stroke:#008000;stroke-dasharray:9.6,2.4,1.5,2.4;stroke-dashoffset:0;stroke-width:1.5;"/>
   </g>
   <g id="line2d_19"/>
   <g id="text_13">
    <!-- postorior pdf -->
    <g transform="translate(480.50625 110.754687)scale(0.1 -0.1)">
     <defs>
      <path d="M 2906 2969 
L 2906 4863 
L 3481 4863 
L 3481 0 
L 2906 0 
L 2906 525 
Q 2725 213 2448 61 
Q 2172 -91 1784 -91 
Q 1150 -91 751 415 
Q 353 922 353 1747 
Q 353 2572 751 3078 
Q 1150 3584 1784 3584 
Q 2172 3584 2448 3432 
Q 2725 3281 2906 2969 
z
M 947 1747 
Q 947 1113 1208 752 
Q 1469 391 1925 391 
Q 2381 391 2643 752 
Q 2906 1113 2906 1747 
Q 2906 2381 2643 2742 
Q 2381 3103 1925 3103 
Q 1469 3103 1208 2742 
Q 947 2381 947 1747 
z
" id="DejaVuSans-64" transform="scale(0.015625)"/>
      <path d="M 2375 4863 
L 2375 4384 
L 1825 4384 
Q 1516 4384 1395 4259 
Q 1275 4134 1275 3809 
L 1275 3500 
L 2222 3500 
L 2222 3053 
L 1275 3053 
L 1275 0 
L 697 0 
L 697 3053 
L 147 3053 
L 147 3500 
L 697 3500 
L 697 3744 
Q 697 4328 969 4595 
Q 1241 4863 1831 4863 
L 2375 4863 
z
" id="DejaVuSans-66" transform="scale(0.015625)"/>
     </defs>
     <use xlink:href="#DejaVuSans-70"/>
     <use x="63.476562" xlink:href="#DejaVuSans-6f"/>
     <use x="124.658203" xlink:href="#DejaVuSans-73"/>
     <use x="176.757812" xlink:href="#DejaVuSans-74"/>
     <use x="215.966797" xlink:href="#DejaVuSans-6f"/>
     <use x="277.148438" xlink:href="#DejaVuSans-72"/>
     <use x="318.261719" xlink:href="#DejaVuSans-69"/>
     <use x="346.044922" xlink:href="#DejaVuSans-6f"/>
     <use x="407.226562" xlink:href="#DejaVuSans-72"/>
     <use x="448.339844" xlink:href="#DejaVuSans-20"/>
     <use x="480.126953" xlink:href="#DejaVuSans-70"/>
     <use x="543.603516" xlink:href="#DejaVuSans-64"/>
     <use x="607.080078" xlink:href="#DejaVuSans-66"/>
    </g>
   </g>
   <g id="line2d_20">
    <path d="M 452.50625 121.932812 
L 472.50625 121.932812 
" style="fill:none;stroke:#0000ff;stroke-dasharray:1.5,2.475;stroke-dashoffset:0;stroke-width:1.5;"/>
   </g>
   <g id="line2d_21"/>
   <g id="text_14">
    <!-- prior pdf -->
    <g transform="translate(480.50625 125.432812)scale(0.1 -0.1)">
     <use xlink:href="#DejaVuSans-70"/>
     <use x="63.476562" xlink:href="#DejaVuSans-72"/>
     <use x="104.589844" xlink:href="#DejaVuSans-69"/>
     <use x="132.373047" xlink:href="#DejaVuSans-6f"/>
     <use x="193.554688" xlink:href="#DejaVuSans-72"/>
     <use x="234.667969" xlink:href="#DejaVuSans-20"/>
     <use x="266.455078" xlink:href="#DejaVuSans-70"/>
     <use x="329.931641" xlink:href="#DejaVuSans-64"/>
     <use x="393.408203" xlink:href="#DejaVuSans-66"/>
    </g>
   </g>
   <g id="patch_9">
    <path d="M 452.50625 140.110937 
L 472.50625 140.110937 
L 472.50625 133.110937 
L 452.50625 133.110937 
z
" style="fill:#008000;opacity:0.1;stroke:#008000;stroke-linejoin:miter;"/>
   </g>
   <g id="text_15">
    <!-- posterior confidence interval -->
    <g transform="translate(480.50625 140.110937)scale(0.1 -0.1)">
     <use xlink:href="#DejaVuSans-70"/>
     <use x="63.476562" xlink:href="#DejaVuSans-6f"/>
     <use x="124.658203" xlink:href="#DejaVuSans-73"/>
     <use x="176.757812" xlink:href="#DejaVuSans-74"/>
     <use x="215.966797" xlink:href="#DejaVuSans-65"/>
     <use x="277.490234" xlink:href="#DejaVuSans-72"/>
     <use x="318.603516" xlink:href="#DejaVuSans-69"/>
     <use x="346.386719" xlink:href="#DejaVuSans-6f"/>
     <use x="407.568359" xlink:href="#DejaVuSans-72"/>
     <use x="448.681641" xlink:href="#DejaVuSans-20"/>
     <use x="480.46875" xlink:href="#DejaVuSans-63"/>
     <use x="535.449219" xlink:href="#DejaVuSans-6f"/>
     <use x="596.630859" xlink:href="#DejaVuSans-6e"/>
     <use x="660.009766" xlink:href="#DejaVuSans-66"/>
     <use x="695.214844" xlink:href="#DejaVuSans-69"/>
     <use x="722.998047" xlink:href="#DejaVuSans-64"/>
     <use x="786.474609" xlink:href="#DejaVuSans-65"/>
     <use x="847.998047" xlink:href="#DejaVuSans-6e"/>
     <use x="911.376953" xlink:href="#DejaVuSans-63"/>
     <use x="966.357422" xlink:href="#DejaVuSans-65"/>
     <use x="1027.880859" xlink:href="#DejaVuSans-20"/>
     <use x="1059.667969" xlink:href="#DejaVuSans-69"/>
     <use x="1087.451172" xlink:href="#DejaVuSans-6e"/>
     <use x="1150.830078" xlink:href="#DejaVuSans-74"/>
     <use x="1190.039062" xlink:href="#DejaVuSans-65"/>
     <use x="1251.5625" xlink:href="#DejaVuSans-72"/>
     <use x="1292.675781" xlink:href="#DejaVuSans-76"/>
     <use x="1351.855469" xlink:href="#DejaVuSans-61"/>
     <use x="1413.134766" xlink:href="#DejaVuSans-6c"/>
    </g>
   </g>
  </g>
 </g>
 <defs>
  <clipPath id="p2af8457272">
   <rect height="326.16" width="558" x="90" y="51.84"/>
  </clipPath>
 </defs>
</svg>
